# xmcd
#
# Track frame offsets: 
#        192
#        9762
#        26395
#        37992
#        52567
#        63547
#        77002
#        87880
#        102772
#        121837
#        133872
#        144750
#
# Disc length: 2058 seconds
#
# Revision: 3
# Processed by: cddbd v1.4PL0 Copyright (c) Steve Scherf et al.
# Submitted via: ExactAudioCopy v0.90b4
#
DISCID=8008080c
DTITLE=The Seldom Scene - Scenic Roots
DYEAR=1900
DGENRE=Country
TTITLE0=If You Ever Change Your Mind
TTITLE1=Lost In A Memory
TTITLE2=The Wrath Of God
TTITLE3=Before I Met You
TTITLE4=Red Georgia Clay
TTITLE5=I've Cried My Last Tear Over You
TTITLE6=Not In My Arms
TTITLE7=Highway Of Heartache
TTITLE8=Long Black Veil
TTITLE9=Last Call To Glory
TTITLE10=Distant Train
TTITLE11=How Mountain Girls Can Love
EXTD=
EXTT0=
EXTT1=
EXTT2=
EXTT3=
EXTT4=
EXTT5=
EXTT6=
EXTT7=
EXTT8=
EXTT9=
EXTT10=
EXTT11=
PLAYORDER=
